<svg xmlns="http://www.w3.org/2000/svg" width="95" height="133" fill="none"><g stroke="#fff"><path d="M44.854 73.432V6.35L40.327 1l-9.466.412L17.28 7.996l.823 6.996-6.996 1.235-6.996 20.166 3.704 3.704L3.7 44.212l4.527 9.465 16.462-1.235m20.165 20.99-4.939 8.231-3.704-.823-4.527.823-6.996-3.292 20.166-30.454"/><path d="m25.511 52.443-12.758 9.054 9.054 10.289 18.108 9.877M8.638 54.089l7.819 4.115M7.403 40.097l30.043 18.108 7.408 9.466m-.412 5.761-16.462.823"/><path d="M18.104 14.581 25.1 27.339l1.646 12.758-.412 33.335"/><path d="m7.403 40.096 17.285-13.169 19.343-9.054M7.815 39.274l10.289-23.87L34.977 1.823"/><path d="m18.104 14.993 18.931 6.173 7.819 4.939"/><path d="M8.227 39.685h18.108l11.112-18.108L41.15 3.469m3.292 32.101-17.696 4.527 11.112 17.696 1.235 15.639"/><path d="M45.516 73.843h4.026m-4.026-6.584h4.026m-4.026-18.52h4.026M45.516 35.57h4.026m-4.026-9.466h4.026m-4.026-8.231h4.026"/><path d="M49.795 73.606V6.401l4.533-5.36 9.479.412 13.6 6.598-.823 7.009 7.006 1.237L90.597 36.5l-3.709 3.71 4.121 4.123-4.534 9.483-16.485-1.237M49.795 73.606l4.946 8.246 3.709-.823 4.534.823 7.006-3.298-20.194-30.51"/><path d="m69.165 52.579 12.776 9.071-9.067 10.307-18.134 9.895m31.322-27.624-7.831 4.123m9.068-18.141L57.215 58.351l-7.42 9.484m.412 5.771 16.486.823"/><path d="m76.584 14.648-7.007 12.781-1.649 12.781.412 33.396"/><path d="m87.299 40.21-17.31-13.194-19.37-9.07m36.268 21.44L76.584 15.472 59.686 1.864"/><path d="m76.584 15.06-18.959 6.184-7.83 4.948"/><path d="M86.474 39.797H68.341L57.213 21.656 53.504 3.515m-3.297 32.159 17.722 4.535-11.128 17.729-1.235 15.668"/></g><path d="M11.49 131.925v-12.828H8.288v5.014H3.241v-5.014H.039v12.828h3.202v-5.144h5.048v5.144h3.202zm15.124-6.414c0-3.293-2.222-6.717-6.837-6.717s-6.837 3.425-6.837 6.717 2.222 6.716 6.837 6.716 6.836-3.424 6.836-6.716zm-3.277 0c0 2.157-1.168 4.068-3.559 4.068s-3.559-1.911-3.559-4.068 1.168-4.087 3.559-4.087 3.559 1.928 3.559 4.087zm14.05 6.414v-2.687h-6.121v-10.141h-3.203v12.828h9.324zm13.014-6.471a6.3 6.3 0 0 0-2.034-4.863c-1.619-1.419-3.786-1.494-5.932-1.494h-4.163v12.828h4.162c1.601 0 4.03 0 5.932-1.665a6.245 6.245 0 0 0 1.544-2.18 6.24 6.24 0 0 0 .49-2.626h.001zm-3.277 0a4.05 4.05 0 0 1-.225 1.57 4.03 4.03 0 0 1-.811 1.362c-.885.89-1.996.928-3.164.928h-1.45v-7.625h1.45c1.187 0 2.355 0 3.164.813a4.09 4.09 0 0 1 1.035 2.952zm7.929 6.471v-12.828H51.85v12.828h3.203zm13.466 0v-12.828h-2.994v7.852l-5.273-7.852h-3.183v12.828h2.994v-7.852l5.273 7.852h3.183zm14.201 0v-7.379h-5.933v2.459h3.315c0 1.722-1.564 2.574-3.183 2.574-2.298 0-3.692-1.798-3.692-4.087 0-2.138 1.262-4.049 3.767-4.049a4.36 4.36 0 0 1 1.744.358 4.37 4.37 0 0 1 1.457 1.023l1.865-1.873c-.245-.303-1.827-2.157-5.179-2.157-4.501 0-6.914 3.103-6.914 6.736 0 3.651 2.298 6.697 6.385 6.697a5.534 5.534 0 0 0 3.936-1.494l.037 1.193h2.392l.002-.001zM95 128.122c0-5.582-7.891-3.274-7.891-5.544 0-.719.753-1.211 2.109-1.211a5.78 5.78 0 0 1 3.88 1.362l1.77-2.043c-.226-.227-1.789-1.893-5.632-1.893-3.183 0-5.293 1.608-5.293 3.936 0 5.297 7.854 3.216 7.854 5.562 0 .908-.998 1.306-2.486 1.306a6.176 6.176 0 0 1-4.012-1.399l-1.695 2.175c.226.227 2.017 1.852 5.707 1.852 3.221.002 5.688-1.454 5.688-4.103zm-83.882-15.796c0-1.716-1.159-2.818-2.642-3.186a3.3 3.3 0 0 0 1.57-1.286 3.305 3.305 0 0 0 .524-1.96 3.35 3.35 0 0 0-.894-2.307c-1.098-1.103-2.805-1.103-4.614-1.103H0v13.844h4.96c2.114 0 4.126-.082 5.264-1.45a3.876 3.876 0 0 0 .894-2.552zm-2.683-6.004c0 1.94-1.585 2.104-3.191 2.104h-3.13v-4.145h3.089c1.443 0 3.232.02 3.232 2.041zm.468 5.963c0 2.205-1.972 2.226-3.76 2.226H2.114v-4.328h3.169c1.811 0 3.62.082 3.62 2.102zm6.279 4.043v-13.844h-2.133v13.844h2.133zm14.837 0v-7.453h-6.055v1.797h4.228v.286c0 1.408-.955 3.818-4.167 3.818-3.273 0-4.695-2.491-4.695-5.37 0-2.799 1.545-5.37 4.817-5.37a5.15 5.15 0 0 1 2.238.448 5.16 5.16 0 0 1 1.827 1.369l1.362-1.245c-.203-.286-1.77-2.451-5.467-2.451-4.492 0-6.992 3.226-6.992 7.249 0 4.124 2.317 7.248 6.565 7.248 3.232 0 4.451-1.797 4.614-2.041l.041 1.715h1.687-.003zm20.262-4.002c0-1.716-1.158-2.818-2.642-3.186a3.3 3.3 0 0 0 1.57-1.286 3.305 3.305 0 0 0 .524-1.96 3.353 3.353 0 0 0-.895-2.308c-1.098-1.102-2.805-1.102-4.614-1.102h-5.062v13.844h4.959c2.114 0 4.126-.082 5.264-1.45a3.877 3.877 0 0 0 .895-2.552zm-2.683-6.004c0 1.94-1.586 2.104-3.191 2.104h-3.13v-4.145h3.09c1.443 0 3.232.02 3.232 2.041zm.468 5.963c0 2.205-1.972 2.225-3.76 2.225h-3.029v-4.327h3.169c1.811 0 3.62.082 3.62 2.102zm15.691 4.043-4.207-5.82a5.32 5.32 0 0 0 2.276-1.164 3.77 3.77 0 0 0 1.138-2.818 3.963 3.963 0 0 0-.289-1.521 3.97 3.97 0 0 0-.849-1.296c-1.138-1.144-2.785-1.225-4.512-1.225h-5.103v13.844h2.134v-5.597h2.907l3.984 5.597h2.522zm-2.927-9.74c0 2.267-2.093 2.369-3.963 2.369h-2.521v-4.717h2.704c1.179 0 2.439.02 3.21.796a2.07 2.07 0 0 1 .57 1.552zm16.585 9.74-5.711-13.844h-2.398l-5.691 13.844h2.257l1.362-3.329h6.502l1.362 3.329h2.319zm-4.35-5.144h-5.162l2.582-6.494 2.581 6.494zm7.683 5.144v-13.844h-2.134v13.844h2.134zm14.106 0v-13.844h-2.053v10.412l-7.358-10.412h-2.154v13.844h2.053v-10.516l7.399 10.516h2.116-.002z" fill="#fff"/></svg>