<svg xmlns="http://www.w3.org/2000/svg" fill="#fefffe" fill-rule="evenodd" viewBox="0 0 2777 892"><path d="M416.5 1.5c139.081-5.72 256.914 40.947 353.5 140 92.42 102.561 131.086 222.894 116 361-18.716 126.911-79.216 228.411-181.5 304.5-108.816 74.964-228.149 98.964-358 72C221.518 847.974 126.018 777.474 60 667.5c-64.29-117.233-75.956-239.567-35-367C68.22 180.945 147.386 94.112 262.5 40c49.245-21.645 100.579-34.478 154-38.5Zm10 56c138.111-2.187 248.945 51.146 332.5 160 70.657 101.304 90.657 211.971 60 332C785.101 662.493 715.267 744.993 609.5 797c-107.708 47.922-215.708 48.589-324 2C173.968 745.487 101.801 658.987 69 539.5c-28.956-130.952-.623-247.619 85-350 73.017-80.256 163.851-124.256 272.5-132ZM2025.5 156.5h46v226h-46v-226ZM1733.5 169.5h46v49h33v31h-33c-.48 30.396.02 60.73 1.5 91 .83 3.5 3 5.667 6.5 6.5a69.806 69.806 0 0 0 25 .5v36a246.187 246.187 0 0 1-49-.5c-17.21-2.541-27.04-12.374-29.5-29.5-.5-34.665-.67-69.332-.5-104h-27v-31h27v-49ZM1112.5 214.5c28.61-3.845 53.78 3.488 75.5 22 9.88 11.471 15.38 24.804 16.5 40-14.91-.324-29.74.009-44.5 1-4.46-22.089-17.96-31.256-40.5-27.5-11.58 3.249-19.75 10.415-24.5 21.5-6.94 19.206-7.27 38.539-1 58 10.02 21.348 26.19 27.848 48.5 19.5 11.21-6.578 17.21-16.412 18-29.5h45c-7.21 45.035-33.71 67.702-79.5 68-46.25-1.923-73.58-25.589-82-71-3.49-26.585 2.18-50.918 17-73 13.65-16.07 30.81-25.737 51.5-29ZM1313.5 214.5c6.01-.424 11.84.242 17.5 2a877.8 877.8 0 0 1 .5 42c-11.46-1.76-22.79-1.26-34 1.5-15.48 7.09-23.98 19.256-25.5 36.5-.5 28.998-.67 57.998-.5 87h-46v-165h43c-.17 10.006 0 20.006.5 30 9.03-18.931 23.86-30.264 44.5-34ZM1611.5 214.5c45.05-3.765 72.88 16.235 83.5 60 6.74 29.818 2.41 57.818-13 84-18.57 23.639-42.74 32.473-72.5 26.5-13.28-3.552-24.12-10.719-32.5-21.5-.5 25.331-.67 50.664-.5 76h-46v-221h44c-.17 6.342 0 12.675.5 19 9.24-12.429 21.41-20.095 36.5-23Zm-6 35c22.99-1.588 37.49 8.745 43.5 31 4.49 18.927 2.82 37.26-5 55-10.14 14.827-23.97 19.993-41.5 15.5-11.38-3.714-19.22-11.214-23.5-22.5-5.96-18.33-5.96-36.663 0-55 4.97-12.478 13.8-20.478 26.5-24ZM1897.5 214.5c26.07-3.4 49.73 2.434 71 17.5 22.55 21.629 32.05 48.129 28.5 79.5-4 38.989-24.83 63.489-62.5 73.5-30.45 6.513-57.79.18-82-19-21.26-23.861-29.1-51.694-23.5-83.5 7.5-38.33 30.33-60.996 68.5-68Zm11 34c21.57-.14 35.07 10.194 40.5 31 3.56 15.423 3.22 30.757-1 46-5.35 17.521-17.19 26.521-35.5 27-17.88-.382-29.72-9.049-35.5-26-3.79-14.512-4.46-29.178-2-44 3.43-19.261 14.6-30.594 33.5-34ZM2168.5 214.5c26.61-3.386 50.61 2.781 72 18.5 19.07 18.528 28.41 41.195 28 68 .53 29.786-10.8 53.786-34 72-30.46 17.208-61.79 18.874-94 5-21.29-11.717-34.46-29.55-39.5-53.5-6.7-29.828-1.36-57.161 16-82 13.73-15.778 30.89-25.111 51.5-28Zm11 34c20.26-.564 33.42 8.769 39.5 28 5.72 20.653 4.05 40.653-5 60-12.65 15.67-28.48 19.837-47.5 12.5-11.43-7.004-18.26-17.171-20.5-30.5-4.13-19.745-1.46-38.412 8-56 6.8-7.981 15.3-12.648 25.5-14ZM2347.5 214.5c17.79-2.678 34.12.822 49 10.5 4.58 3.912 8.42 8.412 11.5 13.5.5-6.658.67-13.325.5-20h44c.17 54.334 0 108.668-.5 163-3.04 30.371-19.2 49.871-48.5 58.5-24.23 6.588-48.23 5.922-72-2-22.33-8.151-34.66-23.984-37-47.5h46c3.66 13.818 12.66 21.318 27 22.5 22.85 2.013 36.35-8.154 40.5-30.5.67-9.667.67-19.333 0-29-5.73 9.725-13.89 16.559-24.5 20.5-23.21 7.212-45.21 4.546-66-8-20.16-18.618-29.49-41.784-28-69.5-.9-27.162 8.43-49.995 28-68.5 9.07-6.739 19.07-11.239 30-13.5Zm16 35c26.27-2.239 41.1 9.761 44.5 36 2.47 14.861.14 28.861-7 42-10.97 14.289-25.14 18.789-42.5 13.5-9.21-3.582-15.38-10.082-18.5-19.5-7.36-20.843-5.69-40.843 5-60 5.04-5.894 11.2-9.894 18.5-12ZM1342.5 218.5c16.58-.325 33.08.008 49.5 1a4173.816 4173.816 0 0 0 36.5 109 6901.675 6901.675 0 0 0 35.5-109 570.748 570.748 0 0 1 47.5-1 60828.748 60828.748 0 0 1-67.5 183c-9.32 27.621-28.65 40.621-58 39-9.18-.596-18.35-1.263-27.5-2v-38c7.51.516 15.01 1.182 22.5 2 16.96-1.896 23.62-11.229 20-28a42732.758 42732.758 0 0 1-58.5-156ZM2473.5 218.5h49c12.06 37.346 24.23 74.679 36.5 112a7241.455 7241.455 0 0 0 35.5-112c16-.167 32 0 48 .5a32009.34 32009.34 0 0 0-70.5 188.5c-10.54 23.872-29.04 34.872-55.5 33-9.34-.623-18.68-1.29-28-2v-38c7.68.501 15.34 1.167 23 2 17.43-2.163 23.93-11.83 19.5-29a8723.908 8723.908 0 0 1-57.5-155ZM1738.5 481.5h13v50h35v12h-35c-.32 41.357.01 82.69 1 124 2.32 8.815 7.98 13.982 17 15.5 5.66.499 11.32.666 17 .5v11c-10.17 1.48-20.17.646-30-2.5-8.11-3.382-13.61-9.216-16.5-17.5a2917.86 2917.86 0 0 1-1.5-131h-30v-12h30v-50ZM1110.5 527.5c16.36-.667 31.69 2.833 46 10.5 8.92 6.998 13.75 16.165 14.5 27.5.33 36 .67 72 1 108 .31 4.465 2.48 7.632 6.5 9.5 4.35.415 8.68.249 13-.5.54 4.173-.12 8.006-2 11.5-8.36 1.375-16.36.375-24-3-2.73-2.626-4.56-5.793-5.5-9.5-.67-5.333-1.33-10.667-2-16-10.87 19.2-27.37 30.034-49.5 32.5-17.4 2.374-33.73-.626-49-9-14.63-13.876-19.47-30.71-14.5-50.5 5.33-16.44 16.5-26.607 33.5-30.5a454.768 454.768 0 0 1 55-7c21.81-2.062 29.98-13.895 24.5-35.5-5.17-13.164-14.67-21.331-28.5-24.5-18.58-4.074-35.58-.74-51 10-8.72 8.646-13.05 19.146-13 31.5h-14c3.28-35.943 22.94-54.277 59-55Zm47 77c1.16 11.159 1.33 22.492.5 34-6.94 31.76-26.77 48.093-59.5 49-14.68.171-26.85-5.163-36.5-16-9.2-17.476-6.7-32.976 7.5-46.5a79.54 79.54 0 0 1 16-7 598.81 598.81 0 0 1 56-7c6.04-.729 11.38-2.896 16-6.5ZM1269.5 527.5c19.9-2.231 38.24 1.936 55 12.5 11.7 10.927 17.03 24.427 16 40.5h-13c.24-18.913-8.42-31.747-26-38.5-20.03-5.632-39.03-3.298-57 7-11.11 10.669-12.94 22.836-5.5 36.5 5.78 5.811 12.62 9.978 20.5 12.5a2351.23 2351.23 0 0 1 59 15c20.62 8.652 29.45 24.152 26.5 46.5-2.91 15.583-11.74 26.416-26.5 32.5-23.38 8.519-46.71 8.519-70 0-21.97-10.406-32.97-27.906-33-52.5h13c1.89 24.064 14.56 39.23 38 45.5 19.56 4.018 37.89 1.018 55-9 12.7-12.618 14.2-26.451 4.5-41.5-7.63-6.733-16.46-11.233-26.5-13.5a372.832 372.832 0 0 1-55-14c-18.84-9.842-26.34-25.342-22.5-46.5 2.75-11.751 9.58-20.251 20.5-25.5 8.82-3.619 17.82-6.119 27-7.5ZM1433.5 527.5c17.96-1.699 34.96 1.468 51 9.5 14.64 10.726 21.31 25.226 20 43.5h-13c.66-19.196-8.01-32.029-26-38.5-19.99-5.577-38.99-3.244-57 7-10.66 9.868-12.83 21.368-6.5 34.5 2.17 3.5 5 6.333 8.5 8.5a91.745 91.745 0 0 0 20 8c15.7 3.56 31.36 7.227 47 11 24.31 7.656 34.81 24.156 31.5 49.5-1.85 12.162-8.01 21.329-18.5 27.5-25.43 12.059-51.43 13.392-78 4-21.5-10.812-32.5-28.312-33-52.5h13c4.26 31.248 22.26 46.915 54 47 13.65.587 26.32-2.58 38-9.5 13.28-12.036 15.45-25.869 6.5-41.5-5.78-5.811-12.62-9.978-20.5-12.5-19.1-4.286-38.1-8.953-57-14-22.23-8.614-31.4-24.781-27.5-48.5 3.63-13.633 12.13-22.8 25.5-27.5 7.32-2.425 14.66-4.258 22-5.5ZM1611.5 527.5c43.53.854 68.36 22.854 74.5 66 .5 7.326.67 14.659.5 22h-131c-.16 18.671 5 35.671 15.5 51 15.05 17.241 33.89 23.741 56.5 19.5 24.94-5.776 39.94-21.276 45-46.5a43.12 43.12 0 0 1 13-1c-6.4 39.737-29.74 59.737-70 60-31.92-.113-54.09-14.78-66.5-44-8.85-27.429-8.52-54.762 1-82 11.41-27.597 31.91-42.597 61.5-45Zm-5 12c35.7-.892 57.53 16.108 65.5 51 .74 4.313 1.24 8.647 1.5 13-39.33.167-78.67 0-118-.5 2.69-23.392 13.35-42.058 32-56 6.1-3.415 12.43-5.915 19-7.5ZM2266.5 527.5c38.62.386 63.45 19.052 74.5 56 8.41 31.863 3.74 61.53-14 89-20.29 22.984-45.45 31.151-75.5 24.5-23.95-5.944-40.45-20.444-49.5-43.5-11.13-30.731-9.46-60.731 5-90 13.56-22.365 33.4-34.365 59.5-36Zm1 11c32.68 2.165 53.18 19.165 61.5 51 6.34 26.939 2.01 51.939-13 75-18.66 21.373-41.49 27.54-68.5 18.5-20.56-10.242-33.06-26.742-37.5-49.5-6.36-30.058.47-56.558 20.5-79.5 10.72-9.18 23.05-14.346 37-15.5ZM2632.5 527.5c41.77.937 66.61 21.937 74.5 63 4.07 23.213 2.07 45.88-6 68-9.02 21.256-24.85 34.09-47.5 38.5-21.62 4.51-41.62.844-60-11-7.48-6.471-12.98-14.304-16.5-23.5-.5 29.998-.67 59.998-.5 90h-13v-221h13c-.17 12.005 0 24.005.5 36 10.32-24.739 28.82-38.072 55.5-40Zm-6 12c29.56-2.811 50.4 9.189 62.5 36 8.67 25.333 8.67 50.667 0 76-15.72 31.099-40.55 41.932-74.5 32.5-14.41-5.411-24.58-15.245-30.5-29.5-6.17-18.52-8.17-37.52-6-57 1.9-22.851 12.4-40.351 31.5-52.5 5.64-2.318 11.3-4.151 17-5.5ZM1972.5 528.5c23.02-2.383 42.85 4.283 59.5 20a62.69 62.69 0 0 1 10 16c.5-10.661.67-21.328.5-32 4.27.297 8.43-.036 12.5-1 .67 55 .67 110 0 165-4.6 40.765-27.43 60.765-68.5 60-15.54.727-30.2-2.44-44-9.5-14.56-9.954-21.56-23.787-21-41.5h13c1.63 18.471 11.3 30.637 29 36.5 14.67 4.665 29.34 4.665 44 0 21.35-8.037 32.85-23.537 34.5-46.5.67-14.333.67-28.667 0-43-11.93 24.474-31.59 36.807-59 37-39.68-2.005-62.68-22.672-69-62-4.63-27.243.7-52.243 16-75 11.38-13.102 25.55-21.102 42.5-24Zm3 11c38.18-.668 60.01 17.998 65.5 56 3.82 26.205-3.02 49.039-20.5 68.5-21.82 16.062-44.49 17.395-68 4-15.15-12.129-23.65-27.962-25.5-47.5-3.06-23.758 2.6-45.091 17-64 8.8-8.979 19.3-14.646 31.5-17ZM2165.5 530.5h13v13c-27.6-1.119-47.1 10.881-58.5 36a63.34 63.34 0 0 0-4 17c-.5 32.665-.67 65.332-.5 98h-13v-163h13c-.17 11.005 0 22.005.5 33 6.29-13.621 16.46-23.121 30.5-28.5 6.33-2.327 12.66-4.16 19-5.5ZM2384.5 531.5h13c-.17 38.335 0 76.668.5 115 2.91 26.905 17.91 40.572 45 41 34.22-3.551 53.22-22.551 57-57 .5-32.998.67-65.998.5-99h13v163h-13c.17-10.672 0-21.339-.5-32-11.9 24.046-31.4 36.046-58.5 36-33.59.577-52.42-15.757-56.5-49-.5-39.332-.67-78.665-.5-118Z"/></svg>