<svg width="287" height="457" fill="none" xmlns="http://www.w3.org/2000/svg"><g filter="url(#filter0_d_3802_2015)"><rect x="2" y="4" width="267" height="437" rx="20" fill="#32BEA6"/><path d="M2 97H269V353L2 242.789V97Z" fill="#2F444E"/><path d="M2 22C2 10.9543 10.9543 2 22 2H249C260.046 2 269 10.9543 269 22V96H2V22Z" fill="#32BEA6"/><path d="M167.579 25.5391V20H206.999V25.5391H190.339V78.7482H184.148V25.5391H167.579Z" fill="white"/><path d="M123.426 20H129.707L146.458 72.9573L144.274 78.7482H141.907L123.426 20ZM145.275 56.6757L158.749 20H164.939C164.636 20.9512 162.33 27.3855 158.02 39.303C152.255 55.193 149.19 63.7534 148.825 64.9844H147.915L145.275 56.6757Z" fill="white"/><path d="M80 65.4879L85.6444 63.6415C85.9478 65.376 86.5548 66.8867 87.4651 68.1735C88.3755 69.4604 89.3466 70.4395 90.3784 71.111C91.4708 71.7824 92.5026 72.3419 93.4737 72.7895C94.5055 73.1811 95.3551 73.4329 96.0228 73.5448L97.0242 73.6287V79C91.5619 79 87.01 76.8739 83.3684 72.6216C81.1835 70.0479 80.0607 67.67 80 65.4879ZM80.7283 35.7781C80.7283 29.8473 83.5505 25.3433 89.1949 22.266C91.9867 20.7553 94.5965 20 97.0242 20V25.3713C94.8393 25.4832 92.6847 26.4343 90.5605 28.2248C88.1328 30.3509 86.8886 32.9526 86.8279 36.0299C86.8279 39.8345 89.8018 42.6321 95.7496 44.4225C97.267 44.8701 99.5429 45.4016 102.578 46.0171C105.43 46.6325 107.403 47.1081 108.495 47.4438C113.897 49.2342 117.386 51.8639 118.964 55.3329C119.753 57.1233 120.148 59.1935 120.148 61.5434C120.148 66.4111 118.115 70.6354 114.048 74.2162C110.346 77.4054 106.128 79 101.394 79V73.6287C103.943 73.5728 106.583 72.4538 109.314 70.2717C112.349 67.7539 113.897 64.7885 113.957 61.3755C113.957 57.0114 110.741 53.9341 104.307 52.1437C102.851 51.752 100.666 51.2764 97.7525 50.7169C94.7786 50.1574 92.8364 49.7098 91.926 49.3741C86.8886 47.5277 83.6112 45.1498 82.0939 42.2404C81.1835 40.394 80.7283 38.2399 80.7283 35.7781ZM101.394 25.3713V20C106.735 20 111.196 22.238 114.777 26.7141C116.415 28.7843 117.356 30.6586 117.599 32.3371L111.772 34.0996C111.408 32.5889 110.771 31.2461 109.861 30.0711C109.011 28.8962 108.101 28.0289 107.129 27.4694C106.219 26.9099 105.309 26.4623 104.398 26.1266C103.549 25.7349 102.851 25.5111 102.304 25.4552L101.394 25.3713Z" fill="white"/><circle cx="145" cy="275" r="33.6" fill="white"/><path d="M151.26 227.105C151.14 227.165 150.945 227.3 150.84 227.421C150.735 227.541 149.693 229.426 148.522 231.62C147.352 233.805 146.287 235.774 146.152 235.991C145.755 236.622 145.785 236.615 143.692 236.697L141.84 236.78L141.442 236.585C141.045 236.389 141 236.329 138.322 232.461C136.822 230.305 135.524 228.435 135.427 228.307C135.209 228.014 134.827 227.826 134.437 227.826C134.114 227.826 125.631 230.651 125.339 230.853C124.904 231.161 124.814 231.522 124.896 232.619C125.076 234.842 125.429 239.319 125.504 240.348L125.594 241.497L125.376 241.925C125.166 242.339 125.091 242.406 123.621 243.428C122.774 244.014 121.963 244.532 121.821 244.577C121.206 244.757 121.131 244.735 116.301 242.729C111.343 240.671 111.485 240.724 110.9 240.987C110.615 241.122 105.042 248.062 104.93 248.423C104.87 248.641 104.87 248.784 104.93 249.001C104.99 249.189 106.07 250.676 107.945 253.148C110.48 256.498 110.878 257.061 110.953 257.384C111.058 257.873 111.058 257.873 110.083 260.201C109.22 262.282 109.025 262.575 108.44 262.785C108.268 262.845 106.01 263.281 103.407 263.747C98.4571 264.633 98.4346 264.64 98.1046 265.091C97.7146 265.617 96.747 274.616 97.062 274.804C97.107 274.834 99.2597 275.63 101.84 276.576C104.42 277.523 106.64 278.364 106.768 278.439C107.263 278.725 107.375 279.048 107.825 281.541C108.058 282.811 108.245 284.005 108.245 284.208C108.245 284.441 108.178 284.696 108.073 284.892C107.96 285.109 106.82 286.221 104.382 288.49C102.44 290.292 100.79 291.877 100.707 291.998C100.61 292.155 100.565 292.351 100.572 292.606C100.572 292.952 100.76 293.335 102.485 296.692C103.542 298.728 104.495 300.493 104.607 300.613C104.712 300.726 104.945 300.861 105.117 300.906C105.41 300.989 105.77 300.921 110.12 299.937C115.026 298.826 115.198 298.803 115.746 299.058C116.038 299.201 119.526 302.807 119.736 303.182C120.021 303.708 120.006 303.858 119.241 306.848C117.478 313.736 117.516 313.586 117.613 313.909C117.658 314.074 117.778 314.292 117.868 314.397C117.958 314.502 119.683 315.516 121.701 316.651C125.024 318.521 125.406 318.716 125.714 318.716C125.916 318.716 126.156 318.656 126.284 318.581C126.411 318.498 128.009 316.913 129.846 315.043C131.684 313.173 133.304 311.58 133.462 311.505C134.009 311.212 134.159 311.227 136.904 311.843C138.322 312.159 139.567 312.467 139.664 312.534C140.182 312.872 140.212 312.94 141.81 317.747C143.317 322.277 143.362 322.397 143.647 322.652C143.812 322.803 144.06 322.938 144.225 322.968C144.907 323.095 149.16 322.825 151.875 322.48C153.105 322.322 153.368 322.194 153.578 321.631C153.645 321.45 154.14 319.212 154.673 316.658C155.318 313.608 155.7 311.926 155.79 311.776C156.083 311.31 156.3 311.197 158.588 310.326C161.056 309.379 161.371 309.312 161.918 309.605C162.053 309.68 163.778 311.039 165.743 312.632C167.716 314.224 169.426 315.584 169.554 315.659C169.719 315.757 169.891 315.787 170.176 315.764C170.559 315.742 170.641 315.682 172.794 314.052C177.167 310.739 177.579 310.416 177.722 310.213C177.804 310.108 177.887 309.853 177.902 309.65C177.939 309.319 177.789 308.884 176.199 304.707C175.239 302.183 174.436 300.005 174.421 299.862C174.346 299.344 174.519 299.021 175.719 297.368C176.364 296.49 176.964 295.686 177.054 295.596C177.317 295.303 177.767 295.107 178.187 295.115C178.389 295.115 180.632 295.34 183.159 295.618L187.75 296.114L188.072 295.971C188.245 295.889 188.447 295.761 188.522 295.678C188.627 295.558 191.252 288.512 191.687 287.183C191.852 286.694 191.747 286.281 191.365 285.891C191.215 285.733 189.355 284.328 187.232 282.766C183.422 279.964 183.377 279.927 183.189 279.513L183.002 279.1L183.092 277.485C183.212 275.375 183.227 275.277 183.504 274.871C183.729 274.548 183.902 274.451 188.102 272.34C190.51 271.13 192.527 270.094 192.595 270.041C192.76 269.899 193 269.403 193 269.2C193 268.885 191.057 260.058 190.937 259.826C190.87 259.698 190.697 259.518 190.54 259.412C190.225 259.21 190.547 259.232 182.942 258.744C180.024 258.556 179.972 258.541 179.529 258.12C179.207 257.812 177.857 255.266 177.804 254.86C177.774 254.658 177.804 254.41 177.864 254.229C177.924 254.064 179.079 252.059 180.429 249.775C182.784 245.809 182.889 245.614 182.889 245.253C182.882 245.05 182.837 244.802 182.784 244.697C182.687 244.509 176.409 238.057 176.049 237.779C175.937 237.689 175.712 237.621 175.449 237.606L175.021 237.576L170.791 239.927C168.466 241.219 166.426 242.324 166.261 242.384C165.743 242.564 165.406 242.451 164.011 241.67C162.601 240.881 162.451 240.769 162.233 240.341C162.038 239.965 162.046 240.063 161.866 234.699C161.716 230.268 161.708 230.11 161.543 229.779C161.266 229.216 161.813 229.381 154.163 227.556C152.873 227.255 151.74 227 151.65 227C151.56 227.008 151.388 227.053 151.26 227.105ZM148.372 247.011C150.435 247.281 152.145 247.664 153.923 248.258C163.366 251.383 170.596 259.525 172.554 269.23C172.981 271.356 173.079 272.377 173.079 274.849C173.086 277.177 173.049 277.748 172.741 279.619C171.301 288.4 165.578 296.121 157.56 300.088C154.523 301.59 151.898 302.379 148.222 302.882C147.075 303.04 142.89 303.01 141.622 302.844C135.067 301.95 129.351 299.096 124.896 294.484C118.528 287.889 115.806 278.8 117.471 269.696C118.566 263.709 121.813 257.993 126.441 253.899C131.009 249.865 136.582 247.469 142.71 246.913C143.842 246.808 147.27 246.868 148.372 247.011Z" fill="#2F444E"/><path d="M133.336 282.222C133.545 282.014 133.831 281.892 134.135 281.892H161.713C162.217 281.892 162.469 282.5 162.113 282.856L156.665 288.302C156.457 288.51 156.17 288.632 155.866 288.632H128.288C127.784 288.632 127.532 288.024 127.888 287.668L133.336 282.222Z" fill="#32BEA6"/><path d="M133.335 261.89C133.552 261.682 133.839 261.56 134.134 261.56H161.712C162.216 261.56 162.468 262.168 162.112 262.524L156.664 267.97C156.455 268.178 156.169 268.3 155.865 268.3H128.286C127.783 268.3 127.531 267.692 127.887 267.336L133.335 261.89Z" fill="#32BEA6"/><path d="M156.665 271.991C156.457 271.782 156.17 271.661 155.866 271.661H128.288C127.784 271.661 127.532 272.269 127.888 272.625L133.336 278.07C133.545 278.279 133.831 278.4 134.135 278.4H161.713C162.217 278.4 162.469 277.792 162.113 277.436L156.665 271.991Z" fill="#32BEA6"/><path d="M90.1854 364.31C88.4908 364.31 86.8684 364.072 85.3184 363.597C83.7684 363.101 82.5388 362.471 81.6294 361.706L83.0244 358.575C83.8924 359.257 84.9671 359.825 86.2484 360.28C87.5298 360.735 88.8421 360.962 90.1854 360.962C91.3221 360.962 92.2418 360.838 92.9444 360.59C93.6471 360.342 94.1638 360.011 94.4944 359.598C94.8251 359.164 94.9904 358.678 94.9904 358.141C94.9904 357.48 94.7528 356.953 94.2774 356.56C93.8021 356.147 93.1821 355.826 92.4174 355.599C91.6734 355.351 90.8364 355.124 89.9064 354.917C88.9971 354.71 88.0774 354.473 87.1474 354.204C86.2381 353.915 85.4011 353.553 84.6364 353.119C83.8924 352.664 83.2828 352.065 82.8074 351.321C82.3321 350.577 82.0944 349.626 82.0944 348.469C82.0944 347.291 82.4044 346.216 83.0244 345.245C83.6651 344.253 84.6261 343.468 85.9074 342.889C87.2094 342.29 88.8524 341.99 90.8364 341.99C92.1384 341.99 93.4301 342.155 94.7114 342.486C95.9928 342.817 97.1088 343.292 98.0594 343.912L96.7884 347.043C95.8171 346.464 94.8148 346.041 93.7814 345.772C92.7481 345.483 91.7561 345.338 90.8054 345.338C89.6894 345.338 88.7801 345.472 88.0774 345.741C87.3954 346.01 86.8891 346.361 86.5584 346.795C86.2484 347.229 86.0934 347.725 86.0934 348.283C86.0934 348.944 86.3208 349.482 86.7754 349.895C87.2508 350.288 87.8604 350.598 88.6044 350.825C89.3691 351.052 90.2164 351.28 91.1464 351.507C92.0764 351.714 92.9961 351.951 93.9054 352.22C94.8354 352.489 95.6724 352.84 96.4164 353.274C97.1811 353.708 97.7908 354.297 98.2454 355.041C98.7208 355.785 98.9584 356.725 98.9584 357.862C98.9584 359.019 98.6381 360.094 97.9974 361.086C97.3774 362.057 96.4164 362.843 95.1144 363.442C93.8124 364.021 92.1694 364.31 90.1854 364.31ZM102.955 364V342.3H106.272L115.758 358.141H114.022L123.353 342.3H126.67L126.701 364H122.888L122.857 348.283H123.663L115.727 361.52H113.929L105.869 348.283H106.799V364H102.955ZM129.493 364L139.258 342.3H143.226L153.022 364H148.806L140.405 344.439H142.017L133.647 364H129.493ZM133.988 358.978L135.073 355.816H146.791L147.876 358.978H133.988ZM155.782 364V342.3H164.71C166.632 342.3 168.275 342.61 169.639 343.23C171.023 343.85 172.088 344.739 172.832 345.896C173.576 347.053 173.948 348.428 173.948 350.019C173.948 351.61 173.576 352.985 172.832 354.142C172.088 355.279 171.023 356.157 169.639 356.777C168.275 357.376 166.632 357.676 164.71 357.676H158.014L159.812 355.847V364H155.782ZM169.98 364L164.493 356.126H168.802L174.32 364H169.98ZM159.812 356.281L158.014 354.359H164.524C166.301 354.359 167.634 353.977 168.523 353.212C169.432 352.447 169.887 351.383 169.887 350.019C169.887 348.634 169.432 347.57 168.523 346.826C167.634 346.082 166.301 345.71 164.524 345.71H158.014L159.812 343.726V356.281ZM182.556 364V345.71H175.364V342.3H193.778V345.71H186.586V364H182.556ZM52.7148 391L43.2288 369.3H47.5998L56.0628 388.923H53.5518L62.1078 369.3H66.1378L56.6828 391H52.7148ZM64.6624 391L74.4274 369.3H78.3954L88.1914 391H83.9754L75.5744 371.439H77.1864L68.8164 391H64.6624ZM69.1574 385.978L70.2424 382.816H81.9604L83.0454 385.978H69.1574ZM90.9511 391V369.3H94.9811V387.59H106.327V391H90.9511ZM109.509 391V369.3H113.539V391H109.509ZM119.408 391V369.3H128.894C131.25 369.3 133.317 369.755 135.094 370.664C136.871 371.573 138.256 372.834 139.248 374.446C140.24 376.058 140.736 377.959 140.736 380.15C140.736 382.32 140.24 384.221 139.248 385.854C138.256 387.466 136.871 388.727 135.094 389.636C133.317 390.545 131.25 391 128.894 391H119.408ZM123.438 387.59H128.708C130.341 387.59 131.746 387.28 132.924 386.66C134.123 386.04 135.042 385.172 135.683 384.056C136.344 382.94 136.675 381.638 136.675 380.15C136.675 378.641 136.344 377.339 135.683 376.244C135.042 375.128 134.123 374.26 132.924 373.64C131.746 373.02 130.341 372.71 128.708 372.71H123.438V387.59ZM141.648 391L151.413 369.3H155.381L165.177 391H160.961L152.56 371.439H154.172L145.802 391H141.648ZM146.143 385.978L147.228 382.816H158.946L160.031 385.978H146.143ZM171.249 391V372.71H164.057V369.3H182.471V372.71H175.279V391H171.249ZM195.36 391.31C193.666 391.31 192.105 391.031 190.679 390.473C189.253 389.915 188.013 389.14 186.959 388.148C185.905 387.135 185.089 385.957 184.51 384.614C183.932 383.25 183.642 381.762 183.642 380.15C183.642 378.538 183.932 377.06 184.51 375.717C185.089 374.353 185.905 373.175 186.959 372.183C188.013 371.17 189.253 370.385 190.679 369.827C192.105 369.269 193.655 368.99 195.329 368.99C197.024 368.99 198.574 369.269 199.979 369.827C201.405 370.385 202.645 371.17 203.699 372.183C204.753 373.175 205.57 374.353 206.148 375.717C206.727 377.06 207.016 378.538 207.016 380.15C207.016 381.762 206.727 383.25 206.148 384.614C205.57 385.978 204.753 387.156 203.699 388.148C202.645 389.14 201.405 389.915 199.979 390.473C198.574 391.031 197.034 391.31 195.36 391.31ZM195.329 387.776C196.425 387.776 197.437 387.59 198.367 387.218C199.297 386.846 200.103 386.319 200.785 385.637C201.467 384.934 201.994 384.128 202.366 383.219C202.759 382.289 202.955 381.266 202.955 380.15C202.955 379.034 202.759 378.021 202.366 377.112C201.994 376.182 201.467 375.376 200.785 374.694C200.103 373.991 199.297 373.454 198.367 373.082C197.437 372.71 196.425 372.524 195.329 372.524C194.234 372.524 193.221 372.71 192.291 373.082C191.382 373.454 190.576 373.991 189.873 374.694C189.191 375.376 188.654 376.182 188.261 377.112C187.889 378.021 187.703 379.034 187.703 380.15C187.703 381.245 187.889 382.258 188.261 383.188C188.654 384.118 189.191 384.934 189.873 385.637C190.555 386.319 191.361 386.846 192.291 387.218C193.221 387.59 194.234 387.776 195.329 387.776ZM211.288 391V369.3H220.216C222.138 369.3 223.781 369.61 225.145 370.23C226.53 370.85 227.594 371.739 228.338 372.896C229.082 374.053 229.454 375.428 229.454 377.019C229.454 378.61 229.082 379.985 228.338 381.142C227.594 382.279 226.53 383.157 225.145 383.777C223.781 384.376 222.138 384.676 220.216 384.676H213.52L215.318 382.847V391H211.288ZM225.486 391L219.999 383.126H224.308L229.826 391H225.486ZM215.318 383.281L213.52 381.359H220.03C221.807 381.359 223.14 380.977 224.029 380.212C224.938 379.447 225.393 378.383 225.393 377.019C225.393 375.634 224.938 374.57 224.029 373.826C223.14 373.082 221.807 372.71 220.03 372.71H213.52L215.318 370.726V383.281ZM78.7027 418V399.71H71.5107V396.3H89.9247V399.71H82.7327V418H78.7027ZM102.814 418.31C101.12 418.31 99.5594 418.031 98.1334 417.473C96.7074 416.915 95.4674 416.14 94.4134 415.148C93.3594 414.135 92.5431 412.957 91.9644 411.614C91.3858 410.25 91.0964 408.762 91.0964 407.15C91.0964 405.538 91.3858 404.06 91.9644 402.717C92.5431 401.353 93.3594 400.175 94.4134 399.183C95.4674 398.17 96.7074 397.385 98.1334 396.827C99.5594 396.269 101.109 395.99 102.783 395.99C104.478 395.99 106.028 396.269 107.433 396.827C108.859 397.385 110.099 398.17 111.153 399.183C112.207 400.175 113.024 401.353 113.602 402.717C114.181 404.06 114.47 405.538 114.47 407.15C114.47 408.762 114.181 410.25 113.602 411.614C113.024 412.978 112.207 414.156 111.153 415.148C110.099 416.14 108.859 416.915 107.433 417.473C106.028 418.031 104.488 418.31 102.814 418.31ZM102.783 414.776C103.879 414.776 104.891 414.59 105.821 414.218C106.751 413.846 107.557 413.319 108.239 412.637C108.921 411.934 109.448 411.128 109.82 410.219C110.213 409.289 110.409 408.266 110.409 407.15C110.409 406.034 110.213 405.021 109.82 404.112C109.448 403.182 108.921 402.376 108.239 401.694C107.557 400.991 106.751 400.454 105.821 400.082C104.891 399.71 103.879 399.524 102.783 399.524C101.688 399.524 100.675 399.71 99.7454 400.082C98.8361 400.454 98.0301 400.991 97.3274 401.694C96.6454 402.376 96.1081 403.182 95.7154 404.112C95.3434 405.021 95.1574 406.034 95.1574 407.15C95.1574 408.245 95.3434 409.258 95.7154 410.188C96.1081 411.118 96.6454 411.934 97.3274 412.637C98.0094 413.319 98.8154 413.846 99.7454 414.218C100.675 414.59 101.688 414.776 102.783 414.776ZM128.91 418.31C127.215 418.31 125.655 418.031 124.229 417.473C122.803 416.915 121.563 416.14 120.509 415.148C119.455 414.135 118.639 412.957 118.06 411.614C117.481 410.25 117.192 408.762 117.192 407.15C117.192 405.538 117.481 404.06 118.06 402.717C118.639 401.353 119.455 400.175 120.509 399.183C121.563 398.17 122.803 397.385 124.229 396.827C125.655 396.269 127.205 395.99 128.879 395.99C130.574 395.99 132.124 396.269 133.529 396.827C134.955 397.385 136.195 398.17 137.249 399.183C138.303 400.175 139.119 401.353 139.698 402.717C140.277 404.06 140.566 405.538 140.566 407.15C140.566 408.762 140.277 410.25 139.698 411.614C139.119 412.978 138.303 414.156 137.249 415.148C136.195 416.14 134.955 416.915 133.529 417.473C132.124 418.031 130.584 418.31 128.91 418.31ZM128.879 414.776C129.974 414.776 130.987 414.59 131.917 414.218C132.847 413.846 133.653 413.319 134.335 412.637C135.017 411.934 135.544 411.128 135.916 410.219C136.309 409.289 136.505 408.266 136.505 407.15C136.505 406.034 136.309 405.021 135.916 404.112C135.544 403.182 135.017 402.376 134.335 401.694C133.653 400.991 132.847 400.454 131.917 400.082C130.987 399.71 129.974 399.524 128.879 399.524C127.784 399.524 126.771 399.71 125.841 400.082C124.932 400.454 124.126 400.991 123.423 401.694C122.741 402.376 122.204 403.182 121.811 404.112C121.439 405.021 121.253 406.034 121.253 407.15C121.253 408.245 121.439 409.258 121.811 410.188C122.204 411.118 122.741 411.934 123.423 412.637C124.105 413.319 124.911 413.846 125.841 414.218C126.771 414.59 127.784 414.776 128.879 414.776ZM144.838 418V396.3H148.868V414.59H160.214V418H144.838ZM166.991 412.885L166.774 408.111L178.151 396.3H182.677L173.222 406.344L170.99 408.793L166.991 412.885ZM163.395 418V396.3H167.425V418H163.395ZM178.523 418L170.215 408.111L172.881 405.166L183.235 418H178.523ZM185.979 418V396.3H190.009V418H185.979ZM200.281 418V399.71H193.089V396.3H211.503V399.71H204.311V418H200.281Z" fill="white"/><path d="M38.5723 127.047H39.8506L43.1113 135.161L46.3652 127.047H47.6504L43.6035 137H42.6055L38.5723 127.047ZM38.1553 127.047H39.2832L39.4678 133.117V137H38.1553V127.047ZM46.9326 127.047H48.0605V137H46.748V133.117L46.9326 127.047ZM58.041 131.709V132.338C58.041 133.085 57.9476 133.755 57.7607 134.348C57.5739 134.94 57.305 135.444 56.9541 135.858C56.6032 136.273 56.1816 136.59 55.6895 136.809C55.2018 137.027 54.6549 137.137 54.0488 137.137C53.4609 137.137 52.9209 137.027 52.4287 136.809C51.9411 136.59 51.5173 136.273 51.1572 135.858C50.8018 135.444 50.526 134.94 50.3301 134.348C50.1341 133.755 50.0361 133.085 50.0361 132.338V131.709C50.0361 130.962 50.1318 130.294 50.3232 129.706C50.5192 129.114 50.7949 128.61 51.1504 128.195C51.5059 127.776 51.9274 127.457 52.415 127.238C52.9072 127.02 53.4473 126.91 54.0352 126.91C54.6413 126.91 55.1882 127.02 55.6758 127.238C56.168 127.457 56.5895 127.776 56.9404 128.195C57.2959 128.61 57.5671 129.114 57.7539 129.706C57.9453 130.294 58.041 130.962 58.041 131.709ZM56.7354 132.338V131.695C56.7354 131.103 56.6738 130.579 56.5508 130.123C56.4323 129.667 56.2568 129.285 56.0244 128.975C55.792 128.665 55.5072 128.43 55.1699 128.271C54.8372 128.111 54.459 128.031 54.0352 128.031C53.625 128.031 53.2536 128.111 52.9209 128.271C52.5928 128.43 52.3102 128.665 52.0732 128.975C51.8408 129.285 51.6608 129.667 51.5332 130.123C51.4056 130.579 51.3418 131.103 51.3418 131.695V132.338C51.3418 132.935 51.4056 133.464 51.5332 133.924C51.6608 134.38 51.8431 134.765 52.0801 135.079C52.3216 135.389 52.6064 135.624 52.9346 135.783C53.2673 135.943 53.6387 136.022 54.0488 136.022C54.4772 136.022 54.8577 135.943 55.1904 135.783C55.5231 135.624 55.8034 135.389 56.0312 135.079C56.2637 134.765 56.4391 134.38 56.5576 133.924C56.6761 133.464 56.7354 132.935 56.7354 132.338ZM67.6729 127.047V137H66.3467L61.3359 129.323V137H60.0166V127.047H61.3359L66.3672 134.744V127.047H67.6729ZM71.4258 127.047V137H70.1064V127.047H71.4258ZM77.2979 127.047V137H75.999V127.047H77.2979ZM80.4971 127.047V128.127H72.8066V127.047H80.4971ZM89.4453 131.709V132.338C89.4453 133.085 89.3519 133.755 89.165 134.348C88.9782 134.94 88.7093 135.444 88.3584 135.858C88.0075 136.273 87.5859 136.59 87.0938 136.809C86.6061 137.027 86.0592 137.137 85.4531 137.137C84.8652 137.137 84.3252 137.027 83.833 136.809C83.3454 136.59 82.9215 136.273 82.5615 135.858C82.2061 135.444 81.9303 134.94 81.7344 134.348C81.5384 133.755 81.4404 133.085 81.4404 132.338V131.709C81.4404 130.962 81.5361 130.294 81.7275 129.706C81.9235 129.114 82.1992 128.61 82.5547 128.195C82.9102 127.776 83.3317 127.457 83.8193 127.238C84.3115 127.02 84.8516 126.91 85.4395 126.91C86.0456 126.91 86.5924 127.02 87.0801 127.238C87.5723 127.457 87.9938 127.776 88.3447 128.195C88.7002 128.61 88.9714 129.114 89.1582 129.706C89.3496 130.294 89.4453 130.962 89.4453 131.709ZM88.1396 132.338V131.695C88.1396 131.103 88.0781 130.579 87.9551 130.123C87.8366 129.667 87.6611 129.285 87.4287 128.975C87.1963 128.665 86.9115 128.43 86.5742 128.271C86.2415 128.111 85.8633 128.031 85.4395 128.031C85.0293 128.031 84.6579 128.111 84.3252 128.271C83.9971 128.43 83.7145 128.665 83.4775 128.975C83.2451 129.285 83.0651 129.667 82.9375 130.123C82.8099 130.579 82.7461 131.103 82.7461 131.695V132.338C82.7461 132.935 82.8099 133.464 82.9375 133.924C83.0651 134.38 83.2474 134.765 83.4844 135.079C83.7259 135.389 84.0107 135.624 84.3389 135.783C84.6715 135.943 85.043 136.022 85.4531 136.022C85.8815 136.022 86.262 135.943 86.5947 135.783C86.9274 135.624 87.2077 135.389 87.4355 135.079C87.668 134.765 87.8434 134.38 87.9619 133.924C88.0804 133.464 88.1396 132.935 88.1396 132.338ZM91.4209 127.047H94.7158C95.4632 127.047 96.0944 127.161 96.6094 127.389C97.1289 127.617 97.5231 127.954 97.792 128.4C98.0654 128.842 98.2021 129.387 98.2021 130.034C98.2021 130.49 98.1087 130.907 97.9219 131.285C97.7396 131.659 97.4753 131.978 97.1289 132.242C96.7871 132.502 96.377 132.696 95.8984 132.823L95.5293 132.967H92.4326L92.4189 131.894H94.7568C95.2308 131.894 95.625 131.812 95.9395 131.647C96.2539 131.479 96.4909 131.253 96.6504 130.971C96.8099 130.688 96.8896 130.376 96.8896 130.034C96.8896 129.651 96.8145 129.316 96.6641 129.029C96.5137 128.742 96.2767 128.521 95.9531 128.366C95.6341 128.207 95.2217 128.127 94.7158 128.127H92.7402V137H91.4209V127.047ZM97.2383 137L94.8184 132.488L96.1924 132.481L98.6465 136.918V137H97.2383ZM101.463 127.047V137H100.144V127.047H101.463ZM111.519 127.047V137H110.192L105.182 129.323V137H103.862V127.047H105.182L110.213 134.744V127.047H111.519ZM121.212 132.044V135.688C121.089 135.87 120.893 136.075 120.624 136.303C120.355 136.526 119.984 136.722 119.51 136.891C119.04 137.055 118.434 137.137 117.691 137.137C117.085 137.137 116.527 137.032 116.017 136.822C115.511 136.608 115.071 136.298 114.697 135.893C114.328 135.482 114.041 134.986 113.836 134.402C113.635 133.814 113.535 133.149 113.535 132.406V131.634C113.535 130.891 113.622 130.228 113.795 129.645C113.973 129.061 114.232 128.567 114.574 128.161C114.916 127.751 115.335 127.441 115.832 127.231C116.329 127.017 116.898 126.91 117.541 126.91C118.302 126.91 118.938 127.042 119.448 127.307C119.963 127.566 120.364 127.926 120.651 128.387C120.943 128.847 121.13 129.371 121.212 129.959H119.893C119.833 129.599 119.715 129.271 119.537 128.975C119.364 128.678 119.116 128.441 118.792 128.264C118.468 128.081 118.051 127.99 117.541 127.99C117.081 127.99 116.682 128.075 116.345 128.243C116.007 128.412 115.729 128.653 115.511 128.968C115.292 129.282 115.128 129.663 115.019 130.109C114.914 130.556 114.861 131.06 114.861 131.62V132.406C114.861 132.98 114.927 133.493 115.06 133.944C115.196 134.396 115.39 134.781 115.641 135.1C115.891 135.414 116.19 135.653 116.536 135.817C116.887 135.981 117.274 136.063 117.698 136.063C118.168 136.063 118.548 136.025 118.84 135.947C119.132 135.865 119.359 135.77 119.523 135.66C119.688 135.546 119.813 135.439 119.899 135.339V133.11H117.596V132.044H121.212ZM44.1641 146.835H45.4766C45.4082 147.464 45.2282 148.027 44.9365 148.523C44.6449 149.02 44.2324 149.414 43.6992 149.706C43.166 149.993 42.5007 150.137 41.7031 150.137C41.1198 150.137 40.5889 150.027 40.1104 149.809C39.6364 149.59 39.2285 149.28 38.8867 148.879C38.5449 148.473 38.2806 147.988 38.0938 147.423C37.9115 146.853 37.8203 146.22 37.8203 145.522V144.531C37.8203 143.834 37.9115 143.203 38.0938 142.638C38.2806 142.068 38.5472 141.58 38.8936 141.175C39.2445 140.769 39.666 140.457 40.1582 140.238C40.6504 140.02 41.2041 139.91 41.8193 139.91C42.5713 139.91 43.207 140.051 43.7266 140.334C44.2461 140.617 44.6494 141.008 44.9365 141.51C45.2282 142.007 45.4082 142.583 45.4766 143.239H44.1641C44.1003 142.774 43.9818 142.376 43.8086 142.043C43.6354 141.706 43.3893 141.446 43.0703 141.264C42.7513 141.081 42.3343 140.99 41.8193 140.99C41.3773 140.99 40.9876 141.075 40.6504 141.243C40.3177 141.412 40.0374 141.651 39.8096 141.961C39.5863 142.271 39.4176 142.642 39.3037 143.075C39.1898 143.508 39.1328 143.989 39.1328 144.518V145.522C39.1328 146.01 39.1829 146.468 39.2832 146.896C39.388 147.325 39.5452 147.701 39.7549 148.024C39.9645 148.348 40.2311 148.603 40.5547 148.79C40.8783 148.972 41.2611 149.063 41.7031 149.063C42.2637 149.063 42.7103 148.975 43.043 148.797C43.3757 148.619 43.6263 148.364 43.7949 148.031C43.9681 147.699 44.0911 147.3 44.1641 146.835ZM54.9375 144.709V145.338C54.9375 146.085 54.8441 146.755 54.6572 147.348C54.4704 147.94 54.2015 148.444 53.8506 148.858C53.4997 149.273 53.0781 149.59 52.5859 149.809C52.0983 150.027 51.5514 150.137 50.9453 150.137C50.3574 150.137 49.8174 150.027 49.3252 149.809C48.8376 149.59 48.4137 149.273 48.0537 148.858C47.6982 148.444 47.4225 147.94 47.2266 147.348C47.0306 146.755 46.9326 146.085 46.9326 145.338V144.709C46.9326 143.962 47.0283 143.294 47.2197 142.706C47.4157 142.114 47.6914 141.61 48.0469 141.195C48.4023 140.776 48.8239 140.457 49.3115 140.238C49.8037 140.02 50.3438 139.91 50.9316 139.91C51.5378 139.91 52.0846 140.02 52.5723 140.238C53.0645 140.457 53.486 140.776 53.8369 141.195C54.1924 141.61 54.4635 142.114 54.6504 142.706C54.8418 143.294 54.9375 143.962 54.9375 144.709ZM53.6318 145.338V144.695C53.6318 144.103 53.5703 143.579 53.4473 143.123C53.3288 142.667 53.1533 142.285 52.9209 141.975C52.6885 141.665 52.4036 141.43 52.0664 141.271C51.7337 141.111 51.3555 141.031 50.9316 141.031C50.5215 141.031 50.1501 141.111 49.8174 141.271C49.4893 141.43 49.2067 141.665 48.9697 141.975C48.7373 142.285 48.5573 142.667 48.4297 143.123C48.3021 143.579 48.2383 144.103 48.2383 144.695V145.338C48.2383 145.935 48.3021 146.464 48.4297 146.924C48.5573 147.38 48.7396 147.765 48.9766 148.079C49.2181 148.389 49.5029 148.624 49.8311 148.783C50.1637 148.943 50.5352 149.022 50.9453 149.022C51.3737 149.022 51.7542 148.943 52.0869 148.783C52.4196 148.624 52.6999 148.389 52.9277 148.079C53.1602 147.765 53.3356 147.38 53.4541 146.924C53.5726 146.464 53.6318 145.935 53.6318 145.338ZM64.5693 140.047V150H63.2432L58.2324 142.323V150H56.9131V140.047H58.2324L63.2637 147.744V140.047H64.5693ZM70.3799 140.047V150H69.0811V140.047H70.3799ZM73.5791 140.047V141.127H65.8887V140.047H73.5791ZM75.0557 140.047H78.3506C79.098 140.047 79.7292 140.161 80.2441 140.389C80.7637 140.617 81.1579 140.954 81.4268 141.4C81.7002 141.842 81.8369 142.387 81.8369 143.034C81.8369 143.49 81.7435 143.907 81.5566 144.285C81.3743 144.659 81.11 144.978 80.7637 145.242C80.4219 145.502 80.0117 145.696 79.5332 145.823L79.1641 145.967H76.0674L76.0537 144.894H78.3916C78.8656 144.894 79.2598 144.812 79.5742 144.647C79.8887 144.479 80.1257 144.253 80.2852 143.971C80.4447 143.688 80.5244 143.376 80.5244 143.034C80.5244 142.651 80.4492 142.316 80.2988 142.029C80.1484 141.742 79.9115 141.521 79.5879 141.366C79.2689 141.207 78.8564 141.127 78.3506 141.127H76.375V150H75.0557V140.047ZM80.873 150L78.4531 145.488L79.8271 145.481L82.2812 149.918V150H80.873ZM91.3457 144.709V145.338C91.3457 146.085 91.2523 146.755 91.0654 147.348C90.8786 147.94 90.6097 148.444 90.2588 148.858C89.9079 149.273 89.4863 149.59 88.9941 149.809C88.5065 150.027 87.9596 150.137 87.3535 150.137C86.7656 150.137 86.2256 150.027 85.7334 149.809C85.2458 149.59 84.8219 149.273 84.4619 148.858C84.1064 148.444 83.8307 147.94 83.6348 147.348C83.4388 146.755 83.3408 146.085 83.3408 145.338V144.709C83.3408 143.962 83.4365 143.294 83.6279 142.706C83.8239 142.114 84.0996 141.61 84.4551 141.195C84.8105 140.776 85.2321 140.457 85.7197 140.238C86.2119 140.02 86.752 139.91 87.3398 139.91C87.946 139.91 88.4928 140.02 88.9805 140.238C89.4727 140.457 89.8942 140.776 90.2451 141.195C90.6006 141.61 90.8717 142.114 91.0586 142.706C91.25 143.294 91.3457 143.962 91.3457 144.709ZM90.04 145.338V144.695C90.04 144.103 89.9785 143.579 89.8555 143.123C89.737 142.667 89.5615 142.285 89.3291 141.975C89.0967 141.665 88.8118 141.43 88.4746 141.271C88.1419 141.111 87.7637 141.031 87.3398 141.031C86.9297 141.031 86.5583 141.111 86.2256 141.271C85.8975 141.43 85.6149 141.665 85.3779 141.975C85.1455 142.285 84.9655 142.667 84.8379 143.123C84.7103 143.579 84.6465 144.103 84.6465 144.695V145.338C84.6465 145.935 84.7103 146.464 84.8379 146.924C84.9655 147.38 85.1478 147.765 85.3848 148.079C85.6263 148.389 85.9111 148.624 86.2393 148.783C86.5719 148.943 86.9434 149.022 87.3535 149.022C87.7819 149.022 88.1624 148.943 88.4951 148.783C88.8278 148.624 89.1081 148.389 89.3359 148.079C89.5684 147.765 89.7438 147.38 89.8623 146.924C89.9808 146.464 90.04 145.935 90.04 145.338ZM99.3574 148.927V150H94.3809V148.927H99.3574ZM94.6406 140.047V150H93.3213V140.047H94.6406ZM41.8398 153.929L38.5449 163H37.1982L40.9922 153.047H41.8604L41.8398 153.929ZM44.6016 163L41.2998 153.929L41.2793 153.047H42.1475L45.9551 163H44.6016ZM44.4307 159.315V160.396H38.8389V159.315H44.4307ZM53.3242 161.927V163H48.3477V161.927H53.3242ZM48.6074 153.047V163H47.2881V153.047H48.6074ZM61.1582 161.927V163H55.8877V161.927H61.1582ZM56.1543 153.047V163H54.835V153.047H56.1543ZM60.4609 157.326V158.399H55.8877V157.326H60.4609ZM61.0898 153.047V154.127H55.8877V153.047H61.0898ZM62.792 153.047H66.0869C66.8343 153.047 67.4655 153.161 67.9805 153.389C68.5 153.617 68.8942 153.954 69.1631 154.4C69.4365 154.842 69.5732 155.387 69.5732 156.034C69.5732 156.49 69.4798 156.907 69.293 157.285C69.1107 157.659 68.8464 157.978 68.5 158.242C68.1582 158.502 67.748 158.696 67.2695 158.823L66.9004 158.967H63.8037L63.79 157.894H66.1279C66.6019 157.894 66.9961 157.812 67.3105 157.647C67.625 157.479 67.862 157.253 68.0215 156.971C68.181 156.688 68.2607 156.376 68.2607 156.034C68.2607 155.651 68.1855 155.316 68.0352 155.029C67.8848 154.742 67.6478 154.521 67.3242 154.366C67.0052 154.207 66.5928 154.127 66.0869 154.127H64.1113V163H62.792V153.047ZM68.6094 163L66.1895 158.488L67.5635 158.481L70.0176 162.918V163H68.6094ZM74.5498 153.047V163H73.251V153.047H74.5498ZM77.749 153.047V154.127H70.0586V153.047H77.749ZM80.6406 153.047V163H79.3213V153.047H80.6406ZM90.6963 153.047V163H89.3701L84.3594 155.323V163H83.04V153.047H84.3594L89.3906 160.744V153.047H90.6963ZM100.39 158.044V161.688C100.267 161.87 100.071 162.075 99.8018 162.303C99.5329 162.526 99.1615 162.722 98.6875 162.891C98.2181 163.055 97.612 163.137 96.8691 163.137C96.263 163.137 95.7048 163.032 95.1943 162.822C94.6885 162.608 94.2487 162.298 93.875 161.893C93.5059 161.482 93.2188 160.986 93.0137 160.402C92.8132 159.814 92.7129 159.149 92.7129 158.406V157.634C92.7129 156.891 92.7995 156.228 92.9727 155.645C93.1504 155.061 93.4102 154.567 93.752 154.161C94.0938 153.751 94.513 153.441 95.0098 153.231C95.5065 153.017 96.0762 152.91 96.7188 152.91C97.4798 152.91 98.1156 153.042 98.626 153.307C99.141 153.566 99.542 153.926 99.8291 154.387C100.121 154.847 100.308 155.371 100.39 155.959H99.0703C99.0111 155.599 98.8926 155.271 98.7148 154.975C98.5417 154.678 98.2933 154.441 97.9697 154.264C97.6462 154.081 97.2292 153.99 96.7188 153.99C96.2585 153.99 95.8597 154.075 95.5225 154.243C95.1852 154.412 94.9072 154.653 94.6885 154.968C94.4697 155.282 94.3057 155.663 94.1963 156.109C94.0915 156.556 94.0391 157.06 94.0391 157.62V158.406C94.0391 158.98 94.1051 159.493 94.2373 159.944C94.374 160.396 94.5677 160.781 94.8184 161.1C95.069 161.414 95.3675 161.653 95.7139 161.817C96.0648 161.981 96.4521 162.063 96.876 162.063C97.3454 162.063 97.7259 162.025 98.0176 161.947C98.3092 161.865 98.5371 161.77 98.7012 161.66C98.8652 161.546 98.9906 161.439 99.0771 161.339V159.11H96.7734V158.044H100.39Z" fill="#DCDCDC"/><path d="M166.84 126.929L163.545 136H162.198L165.992 126.047H166.86L166.84 126.929ZM169.602 136L166.3 126.929L166.279 126.047H167.147L170.955 136H169.602ZM169.431 132.315V133.396H163.839V132.315H169.431ZM178.215 132.835H179.527C179.459 133.464 179.279 134.027 178.987 134.523C178.696 135.02 178.283 135.414 177.75 135.706C177.217 135.993 176.551 136.137 175.754 136.137C175.171 136.137 174.64 136.027 174.161 135.809C173.687 135.59 173.279 135.28 172.938 134.879C172.596 134.473 172.331 133.988 172.145 133.423C171.962 132.853 171.871 132.22 171.871 131.522V130.531C171.871 129.834 171.962 129.203 172.145 128.638C172.331 128.068 172.598 127.58 172.944 127.175C173.295 126.769 173.717 126.457 174.209 126.238C174.701 126.02 175.255 125.91 175.87 125.91C176.622 125.91 177.258 126.051 177.777 126.334C178.297 126.617 178.7 127.008 178.987 127.51C179.279 128.007 179.459 128.583 179.527 129.239H178.215C178.151 128.774 178.033 128.376 177.859 128.043C177.686 127.706 177.44 127.446 177.121 127.264C176.802 127.081 176.385 126.99 175.87 126.99C175.428 126.99 175.038 127.075 174.701 127.243C174.368 127.412 174.088 127.651 173.86 127.961C173.637 128.271 173.468 128.642 173.354 129.075C173.241 129.508 173.184 129.989 173.184 130.518V131.522C173.184 132.01 173.234 132.468 173.334 132.896C173.439 133.325 173.596 133.701 173.806 134.024C174.015 134.348 174.282 134.603 174.605 134.79C174.929 134.972 175.312 135.063 175.754 135.063C176.314 135.063 176.761 134.975 177.094 134.797C177.426 134.619 177.677 134.364 177.846 134.031C178.019 133.699 178.142 133.3 178.215 132.835ZM187.334 132.835H188.646C188.578 133.464 188.398 134.027 188.106 134.523C187.815 135.02 187.402 135.414 186.869 135.706C186.336 135.993 185.671 136.137 184.873 136.137C184.29 136.137 183.759 136.027 183.28 135.809C182.806 135.59 182.398 135.28 182.057 134.879C181.715 134.473 181.451 133.988 181.264 133.423C181.081 132.853 180.99 132.22 180.99 131.522V130.531C180.99 129.834 181.081 129.203 181.264 128.638C181.451 128.068 181.717 127.58 182.063 127.175C182.414 126.769 182.836 126.457 183.328 126.238C183.82 126.02 184.374 125.91 184.989 125.91C185.741 125.91 186.377 126.051 186.896 126.334C187.416 126.617 187.819 127.008 188.106 127.51C188.398 128.007 188.578 128.583 188.646 129.239H187.334C187.27 128.774 187.152 128.376 186.979 128.043C186.805 127.706 186.559 127.446 186.24 127.264C185.921 127.081 185.504 126.99 184.989 126.99C184.547 126.99 184.158 127.075 183.82 127.243C183.488 127.412 183.207 127.651 182.979 127.961C182.756 128.271 182.588 128.642 182.474 129.075C182.36 129.508 182.303 129.989 182.303 130.518V131.522C182.303 132.01 182.353 132.468 182.453 132.896C182.558 133.325 182.715 133.701 182.925 134.024C183.134 134.348 183.401 134.603 183.725 134.79C184.048 134.972 184.431 135.063 184.873 135.063C185.434 135.063 185.88 134.975 186.213 134.797C186.546 134.619 186.796 134.364 186.965 134.031C187.138 133.699 187.261 133.3 187.334 132.835ZM198.107 130.709V131.338C198.107 132.085 198.014 132.755 197.827 133.348C197.64 133.94 197.371 134.444 197.021 134.858C196.67 135.273 196.248 135.59 195.756 135.809C195.268 136.027 194.721 136.137 194.115 136.137C193.527 136.137 192.987 136.027 192.495 135.809C192.007 135.59 191.584 135.273 191.224 134.858C190.868 134.444 190.592 133.94 190.396 133.348C190.201 132.755 190.103 132.085 190.103 131.338V130.709C190.103 129.962 190.198 129.294 190.39 128.706C190.586 128.114 190.861 127.61 191.217 127.195C191.572 126.776 191.994 126.457 192.481 126.238C192.974 126.02 193.514 125.91 194.102 125.91C194.708 125.91 195.255 126.02 195.742 126.238C196.234 126.457 196.656 126.776 197.007 127.195C197.362 127.61 197.633 128.114 197.82 128.706C198.012 129.294 198.107 129.962 198.107 130.709ZM196.802 131.338V130.695C196.802 130.103 196.74 129.579 196.617 129.123C196.499 128.667 196.323 128.285 196.091 127.975C195.858 127.665 195.574 127.43 195.236 127.271C194.904 127.111 194.525 127.031 194.102 127.031C193.691 127.031 193.32 127.111 192.987 127.271C192.659 127.43 192.377 127.665 192.14 127.975C191.907 128.285 191.727 128.667 191.6 129.123C191.472 129.579 191.408 130.103 191.408 130.695V131.338C191.408 131.935 191.472 132.464 191.6 132.924C191.727 133.38 191.91 133.765 192.146 134.079C192.388 134.389 192.673 134.624 193.001 134.783C193.334 134.943 193.705 135.022 194.115 135.022C194.544 135.022 194.924 134.943 195.257 134.783C195.59 134.624 195.87 134.389 196.098 134.079C196.33 133.765 196.506 133.38 196.624 132.924C196.743 132.464 196.802 131.935 196.802 131.338ZM205.777 126.047H207.09V132.78C207.09 133.528 206.924 134.15 206.591 134.646C206.258 135.143 205.816 135.517 205.265 135.768C204.718 136.014 204.123 136.137 203.48 136.137C202.806 136.137 202.195 136.014 201.648 135.768C201.106 135.517 200.675 135.143 200.356 134.646C200.042 134.15 199.885 133.528 199.885 132.78V126.047H201.19V132.78C201.19 133.3 201.286 133.728 201.478 134.065C201.669 134.403 201.936 134.653 202.277 134.817C202.624 134.981 203.025 135.063 203.48 135.063C203.941 135.063 204.342 134.981 204.684 134.817C205.03 134.653 205.299 134.403 205.49 134.065C205.682 133.728 205.777 133.3 205.777 132.78V126.047ZM216.817 126.047V136H215.491L210.48 128.323V136H209.161V126.047H210.48L215.512 133.744V126.047H216.817ZM222.628 126.047V136H221.329V126.047H222.628ZM225.827 126.047V127.127H218.137V126.047H225.827ZM228.719 126.047V136H227.399V126.047H228.719ZM238.774 126.047V136H237.448L232.438 128.323V136H231.118V126.047H232.438L237.469 133.744V126.047H238.774ZM248.468 131.044V134.688C248.345 134.87 248.149 135.075 247.88 135.303C247.611 135.526 247.24 135.722 246.766 135.891C246.296 136.055 245.69 136.137 244.947 136.137C244.341 136.137 243.783 136.032 243.272 135.822C242.767 135.608 242.327 135.298 241.953 134.893C241.584 134.482 241.297 133.986 241.092 133.402C240.891 132.814 240.791 132.149 240.791 131.406V130.634C240.791 129.891 240.878 129.228 241.051 128.645C241.229 128.061 241.488 127.567 241.83 127.161C242.172 126.751 242.591 126.441 243.088 126.231C243.585 126.017 244.154 125.91 244.797 125.91C245.558 125.91 246.194 126.042 246.704 126.307C247.219 126.566 247.62 126.926 247.907 127.387C248.199 127.847 248.386 128.371 248.468 128.959H247.148C247.089 128.599 246.971 128.271 246.793 127.975C246.62 127.678 246.371 127.441 246.048 127.264C245.724 127.081 245.307 126.99 244.797 126.99C244.337 126.99 243.938 127.075 243.601 127.243C243.263 127.412 242.985 127.653 242.767 127.968C242.548 128.282 242.384 128.663 242.274 129.109C242.17 129.556 242.117 130.06 242.117 130.62V131.406C242.117 131.98 242.183 132.493 242.315 132.944C242.452 133.396 242.646 133.781 242.896 134.1C243.147 134.414 243.446 134.653 243.792 134.817C244.143 134.981 244.53 135.063 244.954 135.063C245.424 135.063 245.804 135.025 246.096 134.947C246.387 134.865 246.615 134.77 246.779 134.66C246.943 134.546 247.069 134.439 247.155 134.339V132.11H244.852V131.044H248.468ZM166.84 139.929L163.545 149H162.198L165.992 139.047H166.86L166.84 139.929ZM169.602 149L166.3 139.929L166.279 139.047H167.147L170.955 149H169.602ZM169.431 145.315V146.396H163.839V145.315H169.431ZM179.944 139.047V149H178.618L173.607 141.323V149H172.288V139.047H173.607L178.639 146.744V139.047H179.944ZM186.09 139.929L182.795 149H181.448L185.242 139.047H186.11L186.09 139.929ZM188.852 149L185.55 139.929L185.529 139.047H186.397L190.205 149H188.852ZM188.681 145.315V146.396H183.089V145.315H188.681ZM197.574 147.927V149H192.598V147.927H197.574ZM192.857 139.047V149H191.538V139.047H192.857ZM197.902 139.047L200.486 144.044L203.077 139.047H204.574L201.143 145.281V149H199.823V145.281L196.392 139.047H197.902ZM209.653 139.047V149H208.354V139.047H209.653ZM212.853 139.047V140.127H205.162V139.047H212.853ZM215.744 139.047V149H214.425V139.047H215.744ZM224.152 145.835H225.465C225.396 146.464 225.216 147.027 224.925 147.523C224.633 148.02 224.221 148.414 223.688 148.706C223.154 148.993 222.489 149.137 221.691 149.137C221.108 149.137 220.577 149.027 220.099 148.809C219.625 148.59 219.217 148.28 218.875 147.879C218.533 147.473 218.269 146.988 218.082 146.423C217.9 145.853 217.809 145.22 217.809 144.522V143.531C217.809 142.834 217.9 142.203 218.082 141.638C218.269 141.068 218.535 140.58 218.882 140.175C219.233 139.769 219.654 139.457 220.146 139.238C220.639 139.02 221.192 138.91 221.808 138.91C222.56 138.91 223.195 139.051 223.715 139.334C224.234 139.617 224.638 140.008 224.925 140.51C225.216 141.007 225.396 141.583 225.465 142.239H224.152C224.089 141.774 223.97 141.376 223.797 141.043C223.624 140.706 223.378 140.446 223.059 140.264C222.74 140.081 222.323 139.99 221.808 139.99C221.366 139.99 220.976 140.075 220.639 140.243C220.306 140.412 220.026 140.651 219.798 140.961C219.575 141.271 219.406 141.642 219.292 142.075C219.178 142.508 219.121 142.989 219.121 143.518V144.522C219.121 145.01 219.171 145.468 219.271 145.896C219.376 146.325 219.534 146.701 219.743 147.024C219.953 147.348 220.219 147.603 220.543 147.79C220.867 147.972 221.249 148.063 221.691 148.063C222.252 148.063 222.699 147.975 223.031 147.797C223.364 147.619 223.615 147.364 223.783 147.031C223.956 146.699 224.079 146.3 224.152 145.835ZM232.567 146.484C232.567 146.252 232.531 146.047 232.458 145.869C232.39 145.687 232.267 145.523 232.089 145.377C231.916 145.231 231.674 145.092 231.364 144.96C231.059 144.828 230.672 144.693 230.202 144.557C229.71 144.411 229.266 144.249 228.869 144.071C228.473 143.889 228.133 143.682 227.851 143.449C227.568 143.217 227.352 142.95 227.201 142.649C227.051 142.349 226.976 142.005 226.976 141.617C226.976 141.23 227.055 140.872 227.215 140.544C227.374 140.216 227.602 139.931 227.898 139.689C228.199 139.443 228.557 139.252 228.972 139.115C229.386 138.979 229.849 138.91 230.359 138.91C231.107 138.91 231.74 139.054 232.26 139.341C232.784 139.623 233.183 139.995 233.456 140.455C233.729 140.911 233.866 141.398 233.866 141.918H232.554C232.554 141.544 232.474 141.214 232.314 140.927C232.155 140.635 231.913 140.407 231.59 140.243C231.266 140.075 230.856 139.99 230.359 139.99C229.89 139.99 229.503 140.061 229.197 140.202C228.892 140.343 228.664 140.535 228.514 140.776C228.368 141.018 228.295 141.294 228.295 141.604C228.295 141.813 228.338 142.005 228.425 142.178C228.516 142.346 228.655 142.504 228.842 142.649C229.033 142.795 229.275 142.93 229.566 143.053C229.863 143.176 230.216 143.294 230.626 143.408C231.191 143.568 231.679 143.745 232.089 143.941C232.499 144.137 232.836 144.358 233.101 144.604C233.369 144.846 233.568 145.122 233.695 145.432C233.827 145.737 233.894 146.083 233.894 146.471C233.894 146.876 233.812 147.243 233.647 147.571C233.483 147.899 233.249 148.18 232.943 148.412C232.638 148.645 232.271 148.825 231.843 148.952C231.419 149.075 230.945 149.137 230.421 149.137C229.961 149.137 229.507 149.073 229.061 148.945C228.618 148.818 228.215 148.626 227.851 148.371C227.491 148.116 227.201 147.801 226.982 147.428C226.768 147.049 226.661 146.612 226.661 146.115H227.974C227.974 146.457 228.04 146.751 228.172 146.997C228.304 147.239 228.484 147.439 228.712 147.599C228.944 147.758 229.206 147.877 229.498 147.954C229.794 148.027 230.102 148.063 230.421 148.063C230.881 148.063 231.271 148 231.59 147.872C231.909 147.744 232.15 147.562 232.314 147.325C232.483 147.088 232.567 146.808 232.567 146.484ZM163.155 152.047H166.45C167.198 152.047 167.829 152.161 168.344 152.389C168.863 152.617 169.257 152.954 169.526 153.4C169.8 153.842 169.937 154.387 169.937 155.034C169.937 155.49 169.843 155.907 169.656 156.285C169.474 156.659 169.21 156.978 168.863 157.242C168.521 157.502 168.111 157.696 167.633 157.823L167.264 157.967H164.167L164.153 156.894H166.491C166.965 156.894 167.359 156.812 167.674 156.647C167.988 156.479 168.225 156.253 168.385 155.971C168.544 155.688 168.624 155.376 168.624 155.034C168.624 154.651 168.549 154.316 168.398 154.029C168.248 153.742 168.011 153.521 167.688 153.366C167.368 153.207 166.956 153.127 166.45 153.127H164.475V162H163.155V152.047ZM168.973 162L166.553 157.488L167.927 157.481L170.381 161.918V162H168.973ZM178.105 160.927V162H172.835V160.927H178.105ZM173.102 152.047V162H171.782V152.047H173.102ZM177.408 156.326V157.399H172.835V156.326H177.408ZM178.037 152.047V153.127H172.835V152.047H178.037ZM183.41 158.097H180.751V157.023H183.41C183.925 157.023 184.342 156.941 184.661 156.777C184.98 156.613 185.213 156.385 185.358 156.094C185.509 155.802 185.584 155.469 185.584 155.096C185.584 154.754 185.509 154.433 185.358 154.132C185.213 153.831 184.98 153.59 184.661 153.407C184.342 153.22 183.925 153.127 183.41 153.127H181.059V162H179.739V152.047H183.41C184.162 152.047 184.798 152.177 185.317 152.437C185.837 152.696 186.231 153.056 186.5 153.517C186.769 153.972 186.903 154.494 186.903 155.082C186.903 155.72 186.769 156.265 186.5 156.716C186.231 157.167 185.837 157.511 185.317 157.748C184.798 157.98 184.162 158.097 183.41 158.097ZM196.234 156.709V157.338C196.234 158.085 196.141 158.755 195.954 159.348C195.767 159.94 195.498 160.444 195.147 160.858C194.797 161.273 194.375 161.59 193.883 161.809C193.395 162.027 192.848 162.137 192.242 162.137C191.654 162.137 191.114 162.027 190.622 161.809C190.134 161.59 189.711 161.273 189.351 160.858C188.995 160.444 188.719 159.94 188.523 159.348C188.327 158.755 188.229 158.085 188.229 157.338V156.709C188.229 155.962 188.325 155.294 188.517 154.706C188.713 154.114 188.988 153.61 189.344 153.195C189.699 152.776 190.121 152.457 190.608 152.238C191.101 152.02 191.641 151.91 192.229 151.91C192.835 151.91 193.382 152.02 193.869 152.238C194.361 152.457 194.783 152.776 195.134 153.195C195.489 153.61 195.76 154.114 195.947 154.706C196.139 155.294 196.234 155.962 196.234 156.709ZM194.929 157.338V156.695C194.929 156.103 194.867 155.579 194.744 155.123C194.626 154.667 194.45 154.285 194.218 153.975C193.985 153.665 193.701 153.43 193.363 153.271C193.031 153.111 192.652 153.031 192.229 153.031C191.818 153.031 191.447 153.111 191.114 153.271C190.786 153.43 190.504 153.665 190.267 153.975C190.034 154.285 189.854 154.667 189.727 155.123C189.599 155.579 189.535 156.103 189.535 156.695V157.338C189.535 157.935 189.599 158.464 189.727 158.924C189.854 159.38 190.036 159.765 190.273 160.079C190.515 160.389 190.8 160.624 191.128 160.783C191.461 160.943 191.832 161.022 192.242 161.022C192.671 161.022 193.051 160.943 193.384 160.783C193.716 160.624 193.997 160.389 194.225 160.079C194.457 159.765 194.632 159.38 194.751 158.924C194.869 158.464 194.929 157.935 194.929 157.338ZM198.21 152.047H201.505C202.252 152.047 202.883 152.161 203.398 152.389C203.918 152.617 204.312 152.954 204.581 153.4C204.854 153.842 204.991 154.387 204.991 155.034C204.991 155.49 204.898 155.907 204.711 156.285C204.529 156.659 204.264 156.978 203.918 157.242C203.576 157.502 203.166 157.696 202.688 157.823L202.318 157.967H199.222L199.208 156.894H201.546C202.02 156.894 202.414 156.812 202.729 156.647C203.043 156.479 203.28 156.253 203.439 155.971C203.599 155.688 203.679 155.376 203.679 155.034C203.679 154.651 203.604 154.316 203.453 154.029C203.303 153.742 203.066 153.521 202.742 153.366C202.423 153.207 202.011 153.127 201.505 153.127H199.529V162H198.21V152.047ZM204.027 162L201.607 157.488L202.981 157.481L205.436 161.918V162H204.027ZM209.968 152.047V162H208.669V152.047H209.968ZM213.167 152.047V153.127H205.477V152.047H213.167ZM216.059 152.047V162H214.739V152.047H216.059ZM226.114 152.047V162H224.788L219.777 154.323V162H218.458V152.047H219.777L224.809 159.744V152.047H226.114ZM235.808 157.044V160.688C235.685 160.87 235.489 161.075 235.22 161.303C234.951 161.526 234.579 161.722 234.105 161.891C233.636 162.055 233.03 162.137 232.287 162.137C231.681 162.137 231.123 162.032 230.612 161.822C230.106 161.608 229.667 161.298 229.293 160.893C228.924 160.482 228.637 159.986 228.432 159.402C228.231 158.814 228.131 158.149 228.131 157.406V156.634C228.131 155.891 228.217 155.228 228.391 154.645C228.568 154.061 228.828 153.567 229.17 153.161C229.512 152.751 229.931 152.441 230.428 152.231C230.924 152.017 231.494 151.91 232.137 151.91C232.898 151.91 233.534 152.042 234.044 152.307C234.559 152.566 234.96 152.926 235.247 153.387C235.539 153.847 235.726 154.371 235.808 154.959H234.488C234.429 154.599 234.311 154.271 234.133 153.975C233.96 153.678 233.711 153.441 233.388 153.264C233.064 153.081 232.647 152.99 232.137 152.99C231.676 152.99 231.278 153.075 230.94 153.243C230.603 153.412 230.325 153.653 230.106 153.968C229.888 154.282 229.724 154.663 229.614 155.109C229.509 155.556 229.457 156.06 229.457 156.62V157.406C229.457 157.98 229.523 158.493 229.655 158.944C229.792 159.396 229.986 159.781 230.236 160.1C230.487 160.414 230.785 160.653 231.132 160.817C231.483 160.981 231.87 161.063 232.294 161.063C232.763 161.063 233.144 161.025 233.436 160.947C233.727 160.865 233.955 160.77 234.119 160.66C234.283 160.546 234.409 160.439 234.495 160.339V158.11H232.191V157.044H235.808Z" fill="#DCDCDC"/><path d="M227.928 279C227.928 255.67 218.661 233.296 202.164 216.8C185.668 200.303 163.294 191.036 139.964 191.036C116.635 191.036 94.2606 200.303 77.7641 216.8C61.2676 233.296 52 255.67 52 279L81.9078 279C81.9078 263.602 88.0244 248.835 98.9121 237.948C109.8 227.06 124.567 220.943 139.964 220.943C155.362 220.943 170.128 227.06 181.016 237.948C191.904 248.835 198.02 263.602 198.02 279H227.928Z" fill="#FA615F"/><path d="M202.164 216.8C189.862 204.498 174.188 196.12 157.125 192.726C140.062 189.332 122.375 191.074 106.302 197.732C90.2284 204.389 76.4902 215.664 66.8246 230.13C57.159 244.595 52 261.602 52 279L81.9078 279C81.9078 267.517 85.3127 256.293 91.6921 246.745C98.0714 237.198 107.139 229.757 117.747 225.363C128.355 220.969 140.029 219.819 151.29 222.059C162.552 224.299 172.897 229.828 181.016 237.948L202.164 216.8Z" fill="#32BEA6"/><line x1="172.319" y1="244.524" x2="205.944" y2="210.898" stroke="white" stroke-width="3" stroke-linecap="round"/><path d="M192 211.082C192 200.57 200.522 192 211.035 192V192C221.548 192 230.07 200.57 230.07 211.082V211.082C230.07 221.595 221.548 230.165 211.035 230.165V230.165C200.522 230.165 192 221.595 192 211.082V211.082Z" fill="#FA615F"/><path d="M207.519 199.209H214.657V207.558H222.985V214.714H214.657V223.062H207.519V214.714H199.191V207.558H207.519V199.209Z" fill="white"/><line x1="142.5" y1="177" x2="142.5" y2="116" stroke="white"/></g><defs><filter id="filter0_d_3802_2015" x="0" y="0" width="287" height="457" filterUnits="userSpaceOnUse" color-interpolation-filters="sRGB"><feFlood flood-opacity="0" result="BackgroundImageFix"/><feColorMatrix in="SourceAlpha" type="matrix" values="0 0 0 0 0 0 0 0 0 0 0 0 0 0 0 0 0 0 127 0" result="hardAlpha"/><feOffset dx="8" dy="8"/><feGaussianBlur stdDeviation="5"/><feComposite in2="hardAlpha" operator="out"/><feColorMatrix type="matrix" values="0 0 0 0 0 0 0 0 0 0 0 0 0 0 0 0 0 0 0.25 0"/><feBlend mode="normal" in2="BackgroundImageFix" result="effect1_dropShadow_3802_2015"/><feBlend mode="normal" in="SourceGraphic" in2="effect1_dropShadow_3802_2015" result="shape"/></filter></defs></svg>