<svg xmlns="http://www.w3.org/2000/svg" fill="#003f6b" width="723" height="177" style="fill-rule:evenodd"><path d="M86.5-.5h3a263.153 263.153 0 0 0 14.5 27c.749 1.135.583 2.135-.5 3-10.53-2.653-21.03-2.653-31.5 0l-1-1a305.86 305.86 0 0 1 15.5-29zM330.5 6.5c21.336-.167 42.669 0 64 .5 10.487 1.153 16.32 6.987 17.5 17.5.667 14 .667 28 0 42-1.833 9.833-7.667 15.667-17.5 17.5-21 .667-42 .667-63 0-9.395-1.728-15.228-7.228-17.5-16.5a484.008 484.008 0 0 1 0-44c1.72-9.552 7.22-15.218 16.5-17zm6 16c17.67-.167 35.336 0 53 .5 2.602.935 4.102 2.768 4.5 5.5l.5 17a95.848 95.848 0 0 1-1.5 19c-1.319 1.987-3.152 3.154-5.5 3.5-17.4.958-34.733.624-52-1-1.82-.98-2.987-2.48-3.5-4.5a306.347 306.347 0 0 1 0-35c1.025-2.187 2.525-3.854 4.5-5zM536.5 6.5c21.003-.167 42.003 0 63 .5 9.5 1.5 15 7 16.5 16.5a840.83 840.83 0 0 1 0 58 9.457 9.457 0 0 1-1.5 2.5 42.498 42.498 0 0 1-13 0 4.451 4.451 0 0 1-2-1.5 127.744 127.744 0 0 1-1-22h-61c.299 7.39-.035 14.724-1 22-2.379 1.542-5.046 2.209-8 2-3.08.18-5.913-.486-8.5-2a870.065 870.065 0 0 1 0-59c2.042-9.206 7.542-14.873 16.5-17zm6 16c17.003-.167 34.003 0 51 .5 2.167.833 3.667 2.333 4.5 4.5.499 5.99.666 11.99.5 18h-61a145.05 145.05 0 0 1 .5-17c.599-2.754 2.099-4.754 4.5-6zM629.5 6.5c25.002-.167 50.002 0 75 .5 8.691.596 14.191 5.096 16.5 13.5a63.17 63.17 0 0 1-1 21 20.236 20.236 0 0 1-7.5 7.5c4.469 3.122 7.302 7.288 8.5 12.5.667 7 .667 14 0 21l-1.5 1.5a42.498 42.498 0 0 1-13 0 4.451 4.451 0 0 1-2-1.5 224.395 224.395 0 0 1-1.5-20c-.5-1.833-1.667-3-3.5-3.5a506.291 506.291 0 0 0-54-1.5c.303 8.389-.03 16.722-1 25a4.451 4.451 0 0 1-2 1.5 42.498 42.498 0 0 1-13 0l-1.5-1.5-.5-37.5c.019-13.056.686-25.89 2-38.5zm66 16c3.005-.247 5.505.753 7.5 3 .667 4 .667 8 0 12-.5 1.833-1.667 3-3.5 3.5-17.997.5-35.997.667-54 .5v-19h50zM226.5 6.5c25.002-.167 50.002 0 75 .5 1.978 3.933 2.478 8.1 1.5 12.5-.5 1.167-1.333 2-2.5 2.5l-70 1c-3.732 3.196-4.565 7.03-2.5 11.5 1.491 1.504 3.324 2.337 5.5 2.5l57 1c7.728 1.395 12.562 5.895 14.5 13.5.667 6 .667 12 0 18-2.454 8.779-8.288 13.612-17.5 14.5-25 .667-50 .667-75 0l-1.5-1.5c-.799-4.587-.632-9.087.5-13.5l70-1c5.661-1.779 7.495-5.612 5.5-11.5-1.558-2.268-3.724-3.434-6.5-3.5l-57-1c-8.649-1.648-13.482-6.814-14.5-15.5-.988-7.168-.322-14.168 2-21 4.015-5.25 9.181-8.25 15.5-9zM424.5 6.5c4.93-.303 9.763.03 14.5 1l1 52c.079 5.002 2.579 7.835 7.5 8.5l64 1c2.496 4.66 2.663 9.493.5 14.5a857.311 857.311 0 0 1-71.5.5c-9.395-1.728-15.228-7.228-17.5-16.5l-.5-30c.024-10.56.691-20.894 2-31z"/><path d="M695.5 22.5h-50v19c-.991-6.479-1.324-13.146-1-20 17.175-.33 34.175.003 51 1zM148.5 24.5c1.149.291 1.816 1.124 2 2.5-2.019 10.601-5.019 20.768-9 30.5a82.54 82.54 0 0 1-7.5-10 278.63 278.63 0 0 0-15.5-13 3.647 3.647 0 0 1 1-1.5 307.622 307.622 0 0 0 29-8.5zM25.5 24.5a283.172 283.172 0 0 1 32 10c-9 5.667-16.333 13-22 22-.825.886-1.825 1.219-3 1a656.337 656.337 0 0 0-8-31c.363-.683.696-1.35 1-2zM83.5 34.5c27.918.435 46.418 13.769 55.5 40 5.289 28.505-4.878 49.339-30.5 62.5-26.885 8.992-48.718 2.158-65.5-20.5C28.868 89.072 33.368 65.238 56.5 45c8.385-5.4 17.385-8.9 27-10.5zM-.5 89.5v-3a501.373 501.373 0 0 0 26-14.5c1.135-.75 2.135-.583 3 .5-2.65 10.496-2.65 20.996 0 31.5l-1 1.5c-9.36-5.345-18.694-10.678-28-16zM147.5 71.5a155.303 155.303 0 0 1 29 16.5c-.84 1.767-2.173 3.1-4 4a416.497 416.497 0 0 0-24 13.5l-1-2.5c2.589-10.503 2.589-21.003 0-31.5zM223.5 117.5c15.67-.167 31.337 0 47 .5 2.454.943 3.454 2.776 3 5.5a17.376 17.376 0 0 1-1 5 1106.307 1106.307 0 0 1-47 1.5 6.978 6.978 0 0 0-3.5 2.5 24.935 24.935 0 0 0-.5 7c15.004-.167 30.004 0 45 .5 1.333 3.333 1.333 6.667 0 10-14.996.5-29.996.667-45 .5-1.035 4.77.631 7.936 5 9.5l46 1c1.299 3.135 1.299 6.301 0 9.5a468.796 468.796 0 0 1-53 .5c-5.5-1.5-9-5-10.5-10.5a240.38 240.38 0 0 1 0-31c2.319-7.161 7.153-11.161 14.5-12zM291.5 117.5c15.67-.167 31.337 0 47 .5.916.374 1.75.874 2.5 1.5.784 3.26.617 6.427-.5 9.5l-46 1c-1.833.5-3 1.667-3.5 3.5a121.19 121.19 0 0 0 0 22 11.333 11.333 0 0 0 1.5 3.5 616.933 616.933 0 0 0 48 2c1.333 3.333 1.333 6.667 0 10a675.912 675.912 0 0 1-52 0c-6.72-1.918-10.22-6.418-10.5-13.5a169.166 169.166 0 0 1 0-26c1.347-7.845 5.847-12.512 13.5-14zM359.5 117.5a840.27 840.27 0 0 1 41 .5c6.127.641 10.294 3.808 12.5 9.5a289.106 289.106 0 0 1 0 34c-1.265 5.562-4.765 8.728-10.5 9.5-15 .667-30 .667-45 0-5.735-.772-9.235-3.938-10.5-9.5a289.106 289.106 0 0 1 0-34c2.432-5.618 6.599-8.951 12.5-10zm3 12c12.434-.46 24.767.04 37 1.5a119.318 119.318 0 0 1 .5 26.5 6.978 6.978 0 0 1-3.5 2.5c-11 .667-22 .667-33 0-2.793-.744-4.293-2.577-4.5-5.5a100.2 100.2 0 0 1 0-20c.257-2.407 1.424-4.073 3.5-5zM457.5 117.5c16.003-.167 32.003 0 48 .5 3.596 3.272 3.929 6.938 1 11l-47 1c-2.294 2.718-3.294 5.885-3 9.5 14.337-.167 28.671 0 43 .5 2.454.943 3.454 2.776 3 5.5.174 2.193-.493 4.027-2 5.5-14.663.5-29.33.667-44 .5.166 6.342 0 12.675-.5 19-3.667 1.333-7.333 1.333-11 0a186.375 186.375 0 0 1-1-38c.89-8.384 5.39-13.384 13.5-15zM513.5 117.5c3.079-.24 6.079.093 9 1a907.515 907.515 0 0 0 2.5 39 6.978 6.978 0 0 0 3.5 2.5 240.38 240.38 0 0 0 31 0 11.333 11.333 0 0 0 3.5-1.5 1025.468 1025.468 0 0 0 2.5-40c3.333-1.333 6.667-1.333 10 0a323.223 323.223 0 0 1 .5 44c-1.588 4.552-4.755 7.385-9.5 8.5a484.008 484.008 0 0 1-44 0c-5.847-1.221-9.347-4.721-10.5-10.5a420.29 420.29 0 0 1 0-41c.717-.544 1.217-1.211 1.5-2zM597.5 117.5c12.671-.167 25.338 0 38 .5 7.418 1.086 11.918 5.253 13.5 12.5a271.967 271.967 0 0 1-.5 40c-3.88 1.295-7.714 1.295-11.5 0a401.42 401.42 0 0 0-2-39l-1.5-1.5a289.106 289.106 0 0 0-34 0 4.457 4.457 0 0 0-2 1.5 763.994 763.994 0 0 0-1.5 38c-1.822 1.545-3.989 2.212-6.5 2a17.142 17.142 0 0 1-5.5-1 420.29 420.29 0 0 1 0-41c2.046-6.915 6.546-10.915 13.5-12zM722.5 135.5v19c-.609 8.365-4.942 13.865-13 16.5a468.796 468.796 0 0 1-53-.5 440.118 440.118 0 0 1-.5-51 9.454 9.454 0 0 1 2.5-1.5c17.386-.943 34.72-.61 52 1 7.802 2.782 11.802 8.282 12 16.5zm-54-6c12.005-.167 24.005 0 36 .5 2.167.833 3.667 2.333 4.5 4.5a100.2 100.2 0 0 1 0 20 11.532 11.532 0 0 1-3.5 4.5 243.15 243.15 0 0 1-37 1.5v-31zM140.5 118.5c.996-.086 1.829.248 2.5 1a636.48 636.48 0 0 1 7.5 29.5l-1 2.5-30-8.5a3.647 3.647 0 0 1-1-1.5c9.405-5.737 16.738-13.403 22-23zM32.5 118.5c3.599 1.453 6.099 4.119 7.5 8 5.097 5.936 10.93 10.936 17.5 15a3.646 3.646 0 0 1-1 1.5l-32 8.5 8-33zM89.5 176.5h-3c-5.308-9.274-10.64-18.607-16-28a4.451 4.451 0 0 1 1.5-2c10.478 2.649 20.978 2.649 31.5 0a4.457 4.457 0 0 1 2 1.5 398.333 398.333 0 0 0-16 28.5z"/></svg>